<svg width="259" height="42" viewBox="0 0 259 42" fill="none" xmlns="http://www.w3.org/2000/svg">
<path d="M63.648 10.64V20.368H69.376C69.6747 19.728 69.92 19.088 70.112 18.448C70.304 17.808 70.4533 17.168 70.56 16.528H71.328V25.488H70.56C70.368 24.1653 69.9733 22.8853 69.376 21.648H63.648V32.656L67.296 33.264V34H57.568V33.264L60.288 32.656V10.704L57.568 10.096V9.36H75.36L75.904 16.4H75.136C74.88 15.4827 74.56 14.5227 74.176 13.52C73.8133 12.5173 73.3653 11.5573 72.832 10.64H63.648ZM85.356 16.72C86.572 16.72 87.692 16.944 88.716 17.392C89.74 17.84 90.6253 18.4587 91.372 19.248C92.1187 20.016 92.7053 20.944 93.132 22.032C93.5587 23.0987 93.772 24.2613 93.772 25.52C93.772 26.7787 93.5587 27.952 93.132 29.04C92.7053 30.1067 92.1187 31.0347 91.372 31.824C90.6253 32.6133 89.74 33.232 88.716 33.68C87.692 34.1067 86.572 34.32 85.356 34.32C84.14 34.32 83.02 34.1067 81.996 33.68C80.972 33.232 80.0867 32.6133 79.34 31.824C78.5933 31.0347 78.0067 30.1067 77.58 29.04C77.1533 27.952 76.94 26.7787 76.94 25.52C76.94 24.2613 77.1533 23.0987 77.58 22.032C78.0067 20.944 78.5933 20.016 79.34 19.248C80.0867 18.4587 80.972 17.84 81.996 17.392C83.02 16.944 84.14 16.72 85.356 16.72ZM80.332 25.52C80.332 27.8453 80.7693 29.6587 81.644 30.96C82.54 32.24 83.7667 32.88 85.324 32.88C86.9027 32.88 88.14 32.2293 89.036 30.928C89.932 29.6267 90.38 27.8133 90.38 25.488C90.38 23.184 89.932 21.392 89.036 20.112C88.1613 18.8107 86.9347 18.16 85.356 18.16C83.7773 18.16 82.54 18.8107 81.644 20.112C80.7693 21.392 80.332 23.1947 80.332 25.52ZM105.075 16.72C106.291 16.72 107.411 16.944 108.435 17.392C109.459 17.84 110.344 18.4587 111.091 19.248C111.837 20.016 112.424 20.944 112.851 22.032C113.277 23.0987 113.491 24.2613 113.491 25.52C113.491 26.7787 113.277 27.952 112.851 29.04C112.424 30.1067 111.837 31.0347 111.091 31.824C110.344 32.6133 109.459 33.232 108.435 33.68C107.411 34.1067 106.291 34.32 105.075 34.32C103.859 34.32 102.739 34.1067 101.715 33.68C100.691 33.232 99.8054 32.6133 99.0588 31.824C98.3121 31.0347 97.7254 30.1067 97.2988 29.04C96.8721 27.952 96.6588 26.7787 96.6588 25.52C96.6588 24.2613 96.8721 23.0987 97.2988 22.032C97.7254 20.944 98.3121 20.016 99.0588 19.248C99.8054 18.4587 100.691 17.84 101.715 17.392C102.739 16.944 103.859 16.72 105.075 16.72ZM100.051 25.52C100.051 27.8453 100.488 29.6587 101.363 30.96C102.259 32.24 103.485 32.88 105.043 32.88C106.621 32.88 107.859 32.2293 108.755 30.928C109.651 29.6267 110.099 27.8133 110.099 25.488C110.099 23.184 109.651 21.392 108.755 20.112C107.88 18.8107 106.653 18.16 105.075 18.16C103.496 18.16 102.259 18.8107 101.363 20.112C100.488 21.392 100.051 23.1947 100.051 25.52ZM123.066 34.32C122.127 34.32 121.252 34.1067 120.442 33.68C119.631 33.2533 118.927 32.6667 118.33 31.92C117.732 31.152 117.263 30.2453 116.922 29.2C116.602 28.1547 116.442 27.024 116.442 25.808C116.442 24.464 116.644 23.2373 117.049 22.128C117.455 21.0187 118.031 20.0693 118.778 19.28C119.524 18.4693 120.41 17.84 121.434 17.392C122.458 16.944 123.599 16.72 124.858 16.72C126.031 16.72 127.183 16.88 128.314 17.2V10.32L125.978 9.424V9.008L131.002 7.44H131.322V31.504L133.498 31.984V32.336L128.762 34.32H128.538V31.568L128.41 31.504C127.727 32.464 126.927 33.1787 126.01 33.648C125.114 34.096 124.132 34.32 123.066 34.32ZM124.41 32.24C125.242 32.24 126.01 32.0693 126.714 31.728C127.418 31.3867 127.951 30.928 128.314 30.352V21.2C128.314 18.8533 127.14 17.68 124.794 17.68C124.047 17.68 123.364 17.8613 122.746 18.224C122.148 18.5867 121.626 19.0987 121.178 19.76C120.751 20.4213 120.41 21.2213 120.154 22.16C119.919 23.0987 119.802 24.144 119.802 25.296C119.802 27.4507 120.207 29.1467 121.018 30.384C121.828 31.6213 122.959 32.24 124.41 32.24ZM162.87 21.68H150.774V32.656L153.622 33.264V34H144.534V33.264L147.414 32.656V10.704L144.534 10.096V9.36H153.622V10.096L150.774 10.704V20.4H162.87V10.704L159.99 10.096V9.36H169.078V10.16L166.23 10.704V32.656L169.078 33.328V34H159.99V33.264L162.87 32.656V21.68ZM186.165 24.144H174.485V24.88C174.485 27.2267 174.944 28.9973 175.861 30.192C176.8 31.3867 178.187 31.984 180.021 31.984C181.067 31.984 182.037 31.8027 182.933 31.44C183.829 31.056 184.555 30.5227 185.109 29.84L185.493 29.36L186.037 29.68L185.845 30.128C185.291 31.4293 184.395 32.4533 183.157 33.2C181.941 33.9467 180.544 34.32 178.965 34.32C177.813 34.32 176.768 34.1173 175.829 33.712C174.891 33.2853 174.08 32.6987 173.397 31.952C172.736 31.2053 172.213 30.3093 171.829 29.264C171.467 28.2187 171.285 27.056 171.285 25.776C171.285 24.432 171.488 23.2053 171.893 22.096C172.32 20.9867 172.907 20.0373 173.653 19.248C174.4 18.4373 175.296 17.8187 176.341 17.392C177.387 16.944 178.549 16.72 179.829 16.72C181.941 16.72 183.552 17.328 184.661 18.544C185.771 19.76 186.347 21.5627 186.389 23.952L186.165 24.144ZM179.541 17.712C178.133 17.712 177.003 18.192 176.149 19.152C175.296 20.0907 174.763 21.456 174.549 23.248L182.933 22.96C182.976 22.832 182.997 22.6507 182.997 22.416C183.019 22.16 183.029 21.904 183.029 21.648C183.029 19.024 181.867 17.712 179.541 17.712ZM193.096 34.32C191.944 34.32 191.016 33.9573 190.312 33.232C189.608 32.5067 189.256 31.568 189.256 30.416C189.256 29.712 189.405 29.0933 189.704 28.56C190.024 28.0053 190.525 27.504 191.208 27.056C191.912 26.608 192.818 26.2027 193.928 25.84C195.058 25.456 196.424 25.0933 198.024 24.752V21.616C198.024 20.272 197.832 19.3227 197.448 18.768C197.064 18.2133 196.402 17.936 195.464 17.936C194.546 17.936 193.821 18.16 193.288 18.608C192.754 19.0347 192.488 19.6213 192.488 20.368C192.488 20.5387 192.498 20.7307 192.52 20.944C192.541 21.136 192.552 21.3173 192.552 21.488C192.552 22.0427 192.392 22.4907 192.072 22.832C191.773 23.1733 191.378 23.344 190.888 23.344C190.461 23.344 190.109 23.2053 189.832 22.928C189.554 22.6507 189.416 22.2773 189.416 21.808C189.416 21.104 189.725 20.3787 190.344 19.632C190.984 18.8853 191.826 18.2453 192.872 17.712C194.152 17.0507 195.506 16.72 196.936 16.72C197.853 16.72 198.632 16.8693 199.272 17.168C199.912 17.4453 200.37 17.8613 200.648 18.416C200.733 18.608 200.797 18.8107 200.84 19.024C200.904 19.216 200.946 19.472 200.968 19.792C201.01 20.0907 201.032 20.4747 201.032 20.944C201.053 21.392 201.064 21.9467 201.064 22.608V29.936C201.064 31.0027 201.138 31.7173 201.288 32.08C201.458 32.4427 201.778 32.624 202.248 32.624C202.546 32.624 202.813 32.56 203.048 32.432C203.282 32.2827 203.538 32.0373 203.816 31.696L204.36 32.176C203.869 32.944 203.357 33.4987 202.824 33.84C202.312 34.16 201.714 34.32 201.032 34.32C199.346 34.32 198.397 33.36 198.184 31.44L198.088 31.376C197.469 32.2933 196.712 33.0187 195.816 33.552C194.941 34.064 194.034 34.32 193.096 34.32ZM194.504 32.432C195.186 32.432 195.837 32.2507 196.456 31.888C197.074 31.504 197.597 30.9707 198.024 30.288V25.68C196.893 25.9147 195.944 26.1493 195.176 26.384C194.429 26.6187 193.821 26.896 193.352 27.216C192.904 27.536 192.584 27.8987 192.391 28.304C192.2 28.7093 192.104 29.1893 192.104 29.744C192.104 30.6187 192.306 31.2907 192.712 31.76C193.138 32.208 193.736 32.432 194.504 32.432ZM212.01 34.32L206.282 19.056C206.175 18.8 206.068 18.5973 205.962 18.448C205.876 18.2773 205.748 18.1387 205.578 18.032C205.428 17.9253 205.226 17.8507 204.97 17.808C204.714 17.7653 204.383 17.7227 203.978 17.68V17.04H211.914V17.68C210.996 17.7227 210.399 17.808 210.122 17.936C209.844 18.0427 209.706 18.2133 209.706 18.448C209.706 18.704 209.77 19.024 209.898 19.408L213.578 30.032H213.706L217.162 20.112C217.354 19.536 217.45 19.1093 217.45 18.832C217.45 18.512 217.311 18.2773 217.034 18.128C216.756 17.9787 216.138 17.8293 215.178 17.68V17.04H221.674V17.68C221.076 17.7867 220.596 17.904 220.234 18.032C219.871 18.1387 219.572 18.288 219.338 18.48C219.124 18.6507 218.943 18.8747 218.794 19.152C218.666 19.4293 218.538 19.76 218.41 20.144L213.418 34.32H212.01ZM237.165 24.144H225.485V24.88C225.485 27.2267 225.944 28.9973 226.861 30.192C227.8 31.3867 229.187 31.984 231.021 31.984C232.067 31.984 233.037 31.8027 233.933 31.44C234.829 31.056 235.555 30.5227 236.109 29.84L236.493 29.36L237.037 29.68L236.845 30.128C236.291 31.4293 235.395 32.4533 234.157 33.2C232.941 33.9467 231.544 34.32 229.965 34.32C228.813 34.32 227.768 34.1173 226.829 33.712C225.891 33.2853 225.08 32.6987 224.397 31.952C223.736 31.2053 223.213 30.3093 222.829 29.264C222.467 28.2187 222.285 27.056 222.285 25.776C222.285 24.432 222.488 23.2053 222.893 22.096C223.32 20.9867 223.907 20.0373 224.653 19.248C225.4 18.4373 226.296 17.8187 227.341 17.392C228.387 16.944 229.549 16.72 230.829 16.72C232.941 16.72 234.552 17.328 235.661 18.544C236.771 19.76 237.347 21.5627 237.389 23.952L237.165 24.144ZM230.541 17.712C229.133 17.712 228.003 18.192 227.149 19.152C226.296 20.0907 225.763 21.456 225.549 23.248L233.933 22.96C233.976 22.832 233.997 22.6507 233.997 22.416C234.019 22.16 234.029 21.904 234.029 21.648C234.029 19.024 232.867 17.712 230.541 17.712ZM247.552 33.36V34H239.68V33.36L242.112 32.88V19.6L239.743 18.704V18.288L244.704 16.72H245.024V19.44C245.941 18.5653 246.912 17.8933 247.936 17.424C248.981 16.9547 250.016 16.72 251.04 16.72C251.893 16.72 252.65 16.8907 253.312 17.232C253.973 17.5733 254.453 18.0427 254.752 18.64C254.837 18.8107 254.901 19.0027 254.944 19.216C255.008 19.408 255.05 19.6747 255.072 20.016C255.114 20.3573 255.135 20.784 255.135 21.296C255.157 21.7867 255.168 22.416 255.168 23.184V32.912L257.568 33.36V34H249.728V33.36L252.128 32.912V23.504C252.128 22.5867 252.096 21.8613 252.032 21.328C251.989 20.7733 251.893 20.3147 251.744 19.952C251.338 18.9707 250.506 18.48 249.248 18.48C248.48 18.48 247.744 18.6507 247.04 18.992C246.336 19.3333 245.706 19.824 245.152 20.464V32.88L247.552 33.36Z" fill="white"/>
<path d="M5.13216 28.9851H41.3986C41.6685 28.9851 41.9271 28.8646 42.1176 28.6493C42.3082 28.4343 42.4154 28.1426 42.415 27.8386V26.2435C42.4069 20.7183 40.5231 15.4063 37.1503 11.4002C33.7778 7.39343 29.1729 4.99597 24.2815 4.70079V2.29262H26.1374C26.6985 2.29262 27.1538 1.77943 27.1538 1.14651C27.1538 0.513186 26.6985 0 26.1374 0H20.7362C20.1751 0 19.7202 0.513186 19.7202 1.14651C19.7202 1.77944 20.1751 2.29262 20.7362 2.29262H22.2487V4.70079C17.3577 4.99596 12.7529 7.39333 9.37998 11.4002C6.00717 15.407 4.12342 20.7185 4.11524 26.2435V27.8386C4.11489 28.1426 4.22208 28.4343 4.41264 28.6493C4.60319 28.8646 4.86179 28.9851 5.13163 28.9851H5.13216ZM6.14856 26.2435H6.14821C6.15196 21.1251 7.95679 16.2179 11.1665 12.6C14.376 8.98201 18.7278 6.94998 23.2652 6.94998C27.8028 6.94998 32.1548 8.98201 35.3639 12.6C38.5738 16.2175 40.3785 21.1249 40.3822 26.2435V26.6926L6.14804 26.6922L6.14856 26.2435Z" fill="white"/>
<path d="M45.0836 31.2373H1.0164C0.455289 31.2373 0 31.7505 0 32.3838C0 33.0167 0.455289 33.5299 1.0164 33.5299H45.0836C45.6447 33.5299 46.1 33.0167 46.1 32.3838C46.1 31.7505 45.6447 31.2373 45.0836 31.2373Z" fill="white"/>
<path d="M40.025 36.0728H5.90312C5.34167 36.0728 4.88672 36.5859 4.88672 37.2193C4.88672 37.8522 5.34167 38.3654 5.90312 38.3654H40.025C40.5861 38.3654 41.041 37.8522 41.041 37.2193C41.041 36.5859 40.5861 36.0728 40.025 36.0728Z" fill="white"/>
</svg>
