<svg width="261" height="39" viewBox="0 0 261 39" fill="none" xmlns="http://www.w3.org/2000/svg">
<path d="M66.648 7.64V17.368H72.376C72.6747 16.728 72.92 16.088 73.112 15.448C73.304 14.808 73.4533 14.168 73.56 13.528H74.328V22.488H73.56C73.368 21.1653 72.9733 19.8853 72.376 18.648H66.648V29.656L70.296 30.264V31H60.568V30.264L63.288 29.656V7.704L60.568 7.096V6.36H78.36L78.904 13.4H78.136C77.88 12.4827 77.56 11.5227 77.176 10.52C76.8133 9.51733 76.3653 8.55733 75.832 7.64H66.648Z" fill="#F82348"/>
<path d="M88.356 13.72C89.572 13.72 90.692 13.944 91.716 14.392C92.74 14.84 93.6253 15.4587 94.372 16.248C95.1187 17.016 95.7053 17.944 96.132 19.032C96.5587 20.0987 96.772 21.2613 96.772 22.52C96.772 23.7787 96.5587 24.952 96.132 26.04C95.7053 27.1067 95.1187 28.0347 94.372 28.824C93.6253 29.6133 92.74 30.232 91.716 30.68C90.692 31.1067 89.572 31.32 88.356 31.32C87.14 31.32 86.02 31.1067 84.996 30.68C83.972 30.232 83.0867 29.6133 82.34 28.824C81.5933 28.0347 81.0067 27.1067 80.58 26.04C80.1533 24.952 79.94 23.7787 79.94 22.52C79.94 21.2613 80.1533 20.0987 80.58 19.032C81.0067 17.944 81.5933 17.016 82.34 16.248C83.0867 15.4587 83.972 14.84 84.996 14.392C86.02 13.944 87.14 13.72 88.356 13.72ZM83.332 22.52C83.332 24.8453 83.7693 26.6587 84.644 27.96C85.54 29.24 86.7667 29.88 88.324 29.88C89.9027 29.88 91.14 29.2293 92.036 27.928C92.932 26.6267 93.38 24.8133 93.38 22.488C93.38 20.184 92.932 18.392 92.036 17.112C91.1613 15.8107 89.9347 15.16 88.356 15.16C86.7773 15.16 85.54 15.8107 84.644 17.112C83.7693 18.392 83.332 20.1947 83.332 22.52Z" fill="#F82348"/>
<path d="M108.075 13.72C109.291 13.72 110.411 13.944 111.435 14.392C112.459 14.84 113.344 15.4587 114.091 16.248C114.837 17.016 115.424 17.944 115.851 19.032C116.277 20.0987 116.491 21.2613 116.491 22.52C116.491 23.7787 116.277 24.952 115.851 26.04C115.424 27.1067 114.837 28.0347 114.091 28.824C113.344 29.6133 112.459 30.232 111.435 30.68C110.411 31.1067 109.291 31.32 108.075 31.32C106.859 31.32 105.739 31.1067 104.715 30.68C103.691 30.232 102.805 29.6133 102.059 28.824C101.312 28.0347 100.725 27.1067 100.299 26.04C99.8721 24.952 99.6588 23.7787 99.6588 22.52C99.6588 21.2613 99.8721 20.0987 100.299 19.032C100.725 17.944 101.312 17.016 102.059 16.248C102.805 15.4587 103.691 14.84 104.715 14.392C105.739 13.944 106.859 13.72 108.075 13.72ZM103.051 22.52C103.051 24.8453 103.488 26.6587 104.363 27.96C105.259 29.24 106.485 29.88 108.043 29.88C109.621 29.88 110.859 29.2293 111.755 27.928C112.651 26.6267 113.099 24.8133 113.099 22.488C113.099 20.184 112.651 18.392 111.755 17.112C110.88 15.8107 109.653 15.16 108.075 15.16C106.496 15.16 105.259 15.8107 104.363 17.112C103.488 18.392 103.051 20.1947 103.051 22.52Z" fill="#F82348"/>
<path d="M126.065 31.32C125.127 31.32 124.252 31.1067 123.441 30.68C122.631 30.2533 121.927 29.6667 121.329 28.92C120.732 28.152 120.263 27.2453 119.922 26.2C119.602 25.1547 119.441 24.024 119.441 22.808C119.441 21.464 119.644 20.2373 120.049 19.128C120.455 18.0187 121.031 17.0693 121.777 16.28C122.524 15.4693 123.41 14.84 124.434 14.392C125.458 13.944 126.599 13.72 127.857 13.72C129.031 13.72 130.183 13.88 131.314 14.2V7.32L128.978 6.424V6.008L134.001 4.44H134.322V28.504L136.497 28.984V29.336L131.762 31.32H131.538V28.568L131.41 28.504C130.727 29.464 129.927 30.1787 129.01 30.648C128.114 31.096 127.132 31.32 126.065 31.32ZM127.41 29.24C128.242 29.24 129.01 29.0693 129.714 28.728C130.417 28.3867 130.951 27.928 131.314 27.352V18.2C131.314 15.8533 130.14 14.68 127.794 14.68C127.047 14.68 126.364 14.8613 125.745 15.224C125.148 15.5867 124.625 16.0987 124.177 16.76C123.751 17.4213 123.41 18.2213 123.154 19.16C122.919 20.0987 122.801 21.144 122.801 22.296C122.801 24.4507 123.207 26.1467 124.018 27.384C124.828 28.6213 125.959 29.24 127.41 29.24Z" fill="#F82348"/>
<path d="M165.87 18.68H153.774V29.656L156.622 30.264V31H147.534V30.264L150.414 29.656V7.704L147.534 7.096V6.36H156.622V7.096L153.774 7.704V17.4H165.87V7.704L162.99 7.096V6.36H172.078V7.16L169.23 7.704V29.656L172.078 30.328V31H162.99V30.264L165.87 29.656V18.68Z" fill="#F82348"/>
<path d="M189.165 21.144H177.485V21.88C177.485 24.2267 177.944 25.9973 178.861 27.192C179.8 28.3867 181.187 28.984 183.021 28.984C184.067 28.984 185.037 28.8027 185.933 28.44C186.829 28.056 187.555 27.5227 188.109 26.84L188.493 26.36L189.037 26.68L188.845 27.128C188.291 28.4293 187.395 29.4533 186.157 30.2C184.941 30.9467 183.544 31.32 181.965 31.32C180.813 31.32 179.768 31.1173 178.829 30.712C177.891 30.2853 177.08 29.6987 176.397 28.952C175.736 28.2053 175.213 27.3093 174.829 26.264C174.467 25.2187 174.285 24.056 174.285 22.776C174.285 21.432 174.488 20.2053 174.893 19.096C175.32 17.9867 175.907 17.0373 176.653 16.248C177.4 15.4373 178.296 14.8187 179.341 14.392C180.387 13.944 181.549 13.72 182.829 13.72C184.941 13.72 186.552 14.328 187.661 15.544C188.771 16.76 189.347 18.5627 189.389 20.952L189.165 21.144ZM182.541 14.712C181.133 14.712 180.003 15.192 179.149 16.152C178.296 17.0907 177.763 18.456 177.549 20.248L185.933 19.96C185.976 19.832 185.997 19.6507 185.997 19.416C186.019 19.16 186.029 18.904 186.029 18.648C186.029 16.024 184.867 14.712 182.541 14.712Z" fill="#F82348"/>
<path d="M196.096 31.32C194.944 31.32 194.015 30.9573 193.311 30.232C192.607 29.5067 192.255 28.568 192.255 27.416C192.255 26.712 192.405 26.0933 192.704 25.56C193.024 25.0053 193.525 24.504 194.208 24.056C194.911 23.608 195.818 23.2027 196.928 22.84C198.058 22.456 199.423 22.0933 201.023 21.752V18.616C201.023 17.272 200.831 16.3227 200.447 15.768C200.063 15.2133 199.402 14.936 198.464 14.936C197.546 14.936 196.821 15.16 196.288 15.608C195.754 16.0347 195.488 16.6213 195.488 17.368C195.488 17.5387 195.498 17.7307 195.52 17.944C195.541 18.136 195.551 18.3173 195.551 18.488C195.551 19.0427 195.392 19.4907 195.072 19.832C194.773 20.1733 194.378 20.344 193.887 20.344C193.461 20.344 193.109 20.2053 192.831 19.928C192.554 19.6507 192.415 19.2773 192.415 18.808C192.415 18.104 192.725 17.3787 193.344 16.632C193.984 15.8853 194.826 15.2453 195.872 14.712C197.152 14.0507 198.506 13.72 199.936 13.72C200.853 13.72 201.632 13.8693 202.271 14.168C202.911 14.4453 203.37 14.8613 203.648 15.416C203.733 15.608 203.797 15.8107 203.84 16.024C203.904 16.216 203.946 16.472 203.967 16.792C204.01 17.0907 204.031 17.4747 204.031 17.944C204.053 18.392 204.064 18.9467 204.064 19.608V26.936C204.064 28.0027 204.138 28.7173 204.288 29.08C204.458 29.4427 204.778 29.624 205.247 29.624C205.546 29.624 205.813 29.56 206.048 29.432C206.282 29.2827 206.538 29.0373 206.816 28.696L207.359 29.176C206.869 29.944 206.357 30.4987 205.824 30.84C205.312 31.16 204.714 31.32 204.031 31.32C202.346 31.32 201.397 30.36 201.184 28.44L201.087 28.376C200.469 29.2933 199.712 30.0187 198.816 30.552C197.941 31.064 197.034 31.32 196.096 31.32ZM197.503 29.432C198.186 29.432 198.837 29.2507 199.456 28.888C200.074 28.504 200.597 27.9707 201.023 27.288V22.68C199.893 22.9147 198.944 23.1493 198.176 23.384C197.429 23.6187 196.821 23.896 196.352 24.216C195.904 24.536 195.583 24.8987 195.391 25.304C195.199 25.7093 195.104 26.1893 195.104 26.744C195.104 27.6187 195.306 28.2907 195.712 28.76C196.138 29.208 196.735 29.432 197.503 29.432Z" fill="#F82348"/>
<path d="M215.01 31.32L209.282 16.056C209.175 15.8 209.068 15.5973 208.962 15.448C208.876 15.2773 208.748 15.1387 208.578 15.032C208.428 14.9253 208.226 14.8507 207.97 14.808C207.714 14.7653 207.383 14.7227 206.978 14.68V14.04H214.914V14.68C213.996 14.7227 213.399 14.808 213.122 14.936C212.844 15.0427 212.706 15.2133 212.706 15.448C212.706 15.704 212.77 16.024 212.898 16.408L216.578 27.032H216.706L220.162 17.112C220.354 16.536 220.45 16.1093 220.45 15.832C220.45 15.512 220.311 15.2773 220.034 15.128C219.756 14.9787 219.138 14.8293 218.178 14.68V14.04H224.674V14.68C224.076 14.7867 223.596 14.904 223.234 15.032C222.871 15.1387 222.572 15.288 222.338 15.48C222.124 15.6507 221.943 15.8747 221.794 16.152C221.666 16.4293 221.538 16.76 221.41 17.144L216.418 31.32H215.01Z" fill="#F82348"/>
<path d="M240.165 21.144H228.485V21.88C228.485 24.2267 228.944 25.9973 229.861 27.192C230.8 28.3867 232.187 28.984 234.021 28.984C235.067 28.984 236.037 28.8027 236.933 28.44C237.829 28.056 238.555 27.5227 239.109 26.84L239.493 26.36L240.037 26.68L239.845 27.128C239.291 28.4293 238.395 29.4533 237.157 30.2C235.941 30.9467 234.544 31.32 232.965 31.32C231.813 31.32 230.768 31.1173 229.829 30.712C228.891 30.2853 228.08 29.6987 227.397 28.952C226.736 28.2053 226.213 27.3093 225.829 26.264C225.467 25.2187 225.285 24.056 225.285 22.776C225.285 21.432 225.488 20.2053 225.893 19.096C226.32 17.9867 226.907 17.0373 227.653 16.248C228.4 15.4373 229.296 14.8187 230.341 14.392C231.387 13.944 232.549 13.72 233.829 13.72C235.941 13.72 237.552 14.328 238.661 15.544C239.771 16.76 240.347 18.5627 240.389 20.952L240.165 21.144ZM233.541 14.712C232.133 14.712 231.003 15.192 230.149 16.152C229.296 17.0907 228.763 18.456 228.549 20.248L236.933 19.96C236.976 19.832 236.997 19.6507 236.997 19.416C237.019 19.16 237.029 18.904 237.029 18.648C237.029 16.024 235.867 14.712 233.541 14.712Z" fill="#F82348"/>
<path d="M250.551 30.36V31H242.68V30.36L245.111 29.88V16.6L242.743 15.704V15.288L247.704 13.72H248.023V16.44C248.941 15.5653 249.911 14.8933 250.936 14.424C251.981 13.9547 253.016 13.72 254.04 13.72C254.893 13.72 255.65 13.8907 256.311 14.232C256.973 14.5733 257.453 15.0427 257.751 15.64C257.837 15.8107 257.901 16.0027 257.944 16.216C258.008 16.408 258.05 16.6747 258.072 17.016C258.114 17.3573 258.135 17.784 258.135 18.296C258.157 18.7867 258.168 19.416 258.168 20.184V29.912L260.568 30.36V31H252.728V30.36L255.128 29.912V20.504C255.128 19.5867 255.095 18.8613 255.031 18.328C254.989 17.7733 254.893 17.3147 254.743 16.952C254.338 15.9707 253.506 15.48 252.247 15.48C251.479 15.48 250.743 15.6507 250.04 15.992C249.336 16.3333 248.706 16.824 248.152 17.464V29.88L250.551 30.36Z" fill="#F82348"/>
<path d="M5.13129 28.9851H41.3978C41.6676 28.9851 41.9262 28.8646 42.1168 28.6493C42.3073 28.4343 42.4145 28.1426 42.4142 27.8386V26.2435C42.406 20.7183 40.5222 15.4063 37.1494 11.4002C33.777 7.39343 29.1721 4.99597 24.2807 4.70079V2.29262H26.1365C26.6977 2.29262 27.1529 1.77943 27.1529 1.14651C27.1529 0.513186 26.6977 0 26.1365 0H20.7354C20.1743 0 19.7193 0.513186 19.7193 1.14651C19.7193 1.77944 20.1743 2.29262 20.7354 2.29262H22.2479V4.70079C17.3568 4.99596 12.752 7.39333 9.37912 11.4002C6.00631 15.407 4.12255 20.7185 4.11437 26.2435V27.8386C4.11403 28.1426 4.22121 28.4343 4.41177 28.6493C4.60232 28.8646 4.86145 28.9851 5.13129 28.9851ZM6.14769 26.2435C6.15143 21.1251 7.95592 16.2179 11.1657 12.6C14.3751 8.98201 18.7269 6.94998 23.2644 6.94998C27.8019 6.94998 32.1539 8.98201 35.3631 12.6C38.5729 16.2175 40.3776 21.1249 40.3814 26.2435V26.6926L6.14717 26.6922L6.14769 26.2435Z" fill="#F82348"/>
<path d="M45.0836 31.2373H1.0164C0.455289 31.2373 0 31.7505 0 32.3838C0 33.0167 0.455289 33.5299 1.0164 33.5299H45.0836C45.6447 33.5299 46.1 33.0167 46.1 32.3838C46.1 31.7505 45.6447 31.2373 45.0836 31.2373Z" fill="#F82348"/>
<path d="M40.0251 36.0727H5.90323C5.34179 36.0727 4.88684 36.5858 4.88684 37.2192C4.88684 37.8521 5.34179 38.3653 5.90323 38.3653H40.0251C40.5862 38.3653 41.0411 37.8521 41.0411 37.2192C41.0411 36.5858 40.5862 36.0727 40.0251 36.0727Z" fill="#F82348"/>
</svg>
