<svg width="267" height="39" viewBox="0 0 267 39" fill="none" xmlns="http://www.w3.org/2000/svg">
<path d="M60.504 35V34.232L63.224 33.592V12.008L60.504 11.4V10.632H78.36L78.92 17.592H78.072C77.8267 16.696 77.5173 15.7573 77.144 14.776C76.7813 13.784 76.3333 12.84 75.8 11.944H66.824V33.592L70.424 34.232V35H60.504ZM73.48 26.584C73.2667 25.2827 72.872 24.024 72.296 22.808H66.392V21.48H72.296C72.5947 20.8507 72.8347 20.2213 73.016 19.592C73.208 18.952 73.3627 18.3227 73.48 17.704H74.296V26.584H73.48ZM88.2768 35.336C86.6341 35.336 85.1781 34.9573 83.9088 34.2C82.6394 33.432 81.6421 32.392 80.9168 31.08C80.2021 29.7573 79.8448 28.2693 79.8448 26.616C79.8448 24.952 80.2021 23.464 80.9168 22.152C81.6421 20.84 82.6394 19.8053 83.9088 19.048C85.1781 18.28 86.6341 17.896 88.2768 17.896C89.9194 17.896 91.3701 18.28 92.6288 19.048C93.8981 19.8053 94.8954 20.84 95.6208 22.152C96.3461 23.464 96.7088 24.952 96.7088 26.616C96.7088 28.2693 96.3461 29.7573 95.6208 31.08C94.8954 32.392 93.8981 33.432 92.6288 34.2C91.3701 34.9573 89.9194 35.336 88.2768 35.336ZM88.2448 33.864C89.0234 33.864 89.7114 33.6933 90.3088 33.352C90.9061 33 91.4074 32.504 91.8128 31.864C92.2288 31.2133 92.5434 30.4453 92.7568 29.56C92.9701 28.664 93.0768 27.672 93.0768 26.584C93.0768 25.5067 92.9701 24.5253 92.7568 23.64C92.5541 22.7547 92.2501 21.992 91.8448 21.352C91.4394 20.712 90.9381 20.2213 90.3408 19.88C89.7434 19.528 89.0554 19.352 88.2768 19.352C87.4981 19.352 86.8101 19.528 86.2128 19.88C85.6154 20.2213 85.1141 20.712 84.7088 21.352C84.3034 21.992 83.9941 22.76 83.7808 23.656C83.5781 24.5413 83.4768 25.528 83.4768 26.616C83.4768 27.704 83.5781 28.6907 83.7808 29.576C83.9941 30.4613 84.3034 31.224 84.7088 31.864C85.1141 32.504 85.6101 33 86.1968 33.352C86.7941 33.6933 87.4768 33.864 88.2448 33.864ZM107.902 35.336C106.259 35.336 104.803 34.9573 103.534 34.2C102.264 33.432 101.267 32.392 100.542 31.08C99.8271 29.7573 99.4698 28.2693 99.4698 26.616C99.4698 24.952 99.8271 23.464 100.542 22.152C101.267 20.84 102.264 19.8053 103.534 19.048C104.803 18.28 106.259 17.896 107.902 17.896C109.544 17.896 110.995 18.28 112.254 19.048C113.523 19.8053 114.52 20.84 115.246 22.152C115.971 23.464 116.334 24.952 116.334 26.616C116.334 28.2693 115.971 29.7573 115.246 31.08C114.52 32.392 113.523 33.432 112.254 34.2C110.995 34.9573 109.544 35.336 107.902 35.336ZM107.87 33.864C108.648 33.864 109.336 33.6933 109.934 33.352C110.531 33 111.032 32.504 111.438 31.864C111.854 31.2133 112.168 30.4453 112.382 29.56C112.595 28.664 112.702 27.672 112.702 26.584C112.702 25.5067 112.595 24.5253 112.382 23.64C112.179 22.7547 111.875 21.992 111.47 21.352C111.064 20.712 110.563 20.2213 109.966 19.88C109.368 19.528 108.68 19.352 107.902 19.352C107.123 19.352 106.435 19.528 105.838 19.88C105.24 20.2213 104.739 20.712 104.334 21.352C103.928 21.992 103.619 22.76 103.406 23.656C103.203 24.5413 103.102 25.528 103.102 26.616C103.102 27.704 103.203 28.6907 103.406 29.576C103.619 30.4613 103.928 31.224 104.334 31.864C104.739 32.504 105.235 33 105.822 33.352C106.419 33.6933 107.102 33.864 107.87 33.864ZM125.815 35.336C124.556 35.336 123.425 34.968 122.423 34.232C121.42 33.496 120.625 32.4933 120.039 31.224C119.463 29.944 119.175 28.4987 119.175 26.888C119.175 25.1173 119.527 23.56 120.231 22.216C120.935 20.8613 121.916 19.8053 123.175 19.048C124.433 18.28 125.889 17.896 127.543 17.896C128.716 17.896 129.868 18.072 130.999 18.424V11.624L128.631 10.712V10.264L133.863 8.712H134.231V32.456L136.423 32.952V33.336L131.479 35.336H131.223V32.696L131.079 32.648C130.417 33.5333 129.633 34.2053 128.727 34.664C127.831 35.112 126.86 35.336 125.815 35.336ZM127.223 33.224C128.012 33.224 128.743 33.0587 129.415 32.728C130.097 32.3973 130.625 31.9493 130.999 31.384V22.488C130.999 21.3467 130.7 20.472 130.103 19.864C129.516 19.256 128.668 18.952 127.559 18.952C126.129 18.952 124.972 19.6293 124.087 20.984C123.212 22.3387 122.775 24.136 122.775 26.376C122.775 28.488 123.169 30.1573 123.959 31.384C124.748 32.6107 125.836 33.224 127.223 33.224ZM162.518 35V34.232L165.35 33.592V12.008L162.518 11.4V10.632H171.75V11.448L168.95 12.008V33.592L171.75 34.264V35H162.518ZM147.158 35V34.232L150.006 33.592V12.008L147.158 11.4V10.632H156.406V11.4L153.606 12.008V33.592L156.406 34.232V35H147.158ZM152.086 22.84V21.496H166.934V22.84H152.086ZM181.638 35.336C180.091 35.336 178.731 34.984 177.558 34.28C176.395 33.5653 175.488 32.5733 174.838 31.304C174.198 30.024 173.878 28.5467 173.878 26.872C173.878 25.0907 174.235 23.528 174.95 22.184C175.675 20.84 176.683 19.7893 177.974 19.032C179.275 18.2747 180.779 17.896 182.486 17.896C184.598 17.896 186.214 18.5093 187.334 19.736C188.464 20.9627 189.051 22.76 189.094 25.128L188.87 25.32H176.47V24.392L185.43 24.072C185.504 23.7947 185.542 23.3733 185.542 22.808C185.542 20.248 184.416 18.968 182.166 18.968C180.619 18.968 179.424 19.576 178.582 20.792C177.75 21.9973 177.334 23.7093 177.334 25.928C177.334 30.568 179.136 32.888 182.742 32.888C185.088 32.888 186.886 32.0347 188.134 30.328L188.726 30.696C188.171 32.168 187.27 33.3093 186.022 34.12C184.784 34.9307 183.323 35.336 181.638 35.336ZM195.688 35.336C194.546 35.336 193.618 34.9787 192.904 34.264C192.2 33.5493 191.848 32.6213 191.848 31.48C191.848 30.5413 192.136 29.7307 192.712 29.048C193.288 28.3653 194.216 27.768 195.496 27.256C196.786 26.7333 198.488 26.2587 200.6 25.832V22.84C200.6 21.4853 200.413 20.536 200.04 19.992C199.677 19.448 199.048 19.176 198.152 19.176C197.266 19.176 196.562 19.3893 196.04 19.816C195.517 20.2427 195.256 20.8187 195.256 21.544C195.256 21.7467 195.266 21.9493 195.288 22.152C195.32 22.344 195.336 22.5307 195.336 22.712C195.336 23.256 195.17 23.704 194.84 24.056C194.52 24.408 194.109 24.584 193.608 24.584C193.149 24.584 192.776 24.4347 192.488 24.136C192.21 23.8373 192.072 23.448 192.072 22.968C192.072 22.2747 192.37 21.5653 192.968 20.84C193.576 20.104 194.376 19.4747 195.368 18.952C196.69 18.248 198.125 17.896 199.672 17.896C200.6 17.896 201.384 18.04 202.024 18.328C202.674 18.616 203.144 19.0267 203.432 19.56C203.602 19.9227 203.714 20.3813 203.768 20.936C203.832 21.4907 203.864 22.4187 203.864 23.72V30.872C203.864 31.9067 203.944 32.6107 204.104 32.984C204.274 33.3573 204.589 33.544 205.048 33.544C205.57 33.544 206.077 33.2453 206.568 32.648L207.144 33.192C206.621 33.9493 206.088 34.4987 205.544 34.84C205.01 35.1707 204.386 35.336 203.672 35.336C202.808 35.336 202.136 35.1013 201.656 34.632C201.176 34.1627 200.856 33.448 200.696 32.488H200.6C199.992 33.3627 199.256 34.056 198.392 34.568C197.528 35.08 196.626 35.336 195.688 35.336ZM197.288 33.304C197.949 33.304 198.568 33.1333 199.144 32.792C199.72 32.44 200.205 31.9547 200.6 31.336V26.824C199.17 27.1013 198.045 27.4053 197.224 27.736C196.413 28.0667 195.837 28.472 195.496 28.952C195.165 29.4213 195 30.0133 195 30.728C195 31.5493 195.192 32.184 195.576 32.632C195.97 33.08 196.541 33.304 197.288 33.304ZM214.263 35.336L208.471 20.28C208.279 19.7787 208.044 19.4427 207.767 19.272C207.49 19.0907 206.951 18.9733 206.151 18.92V18.216H214.391V18.92C213.484 18.952 212.887 19.032 212.599 19.16C212.311 19.2773 212.167 19.464 212.167 19.72C212.167 19.9653 212.231 20.264 212.359 20.616L215.975 30.872H216.103L219.479 21.304C219.671 20.76 219.767 20.344 219.767 20.056C219.767 19.7467 219.628 19.5173 219.351 19.368C219.074 19.208 218.466 19.0587 217.527 18.92V18.216H224.087V18.92C223.298 19.048 222.7 19.2027 222.295 19.384C221.89 19.5547 221.586 19.7947 221.383 20.104C221.191 20.4133 220.999 20.8293 220.807 21.352L215.783 35.336H214.263ZM232.013 35.336C230.466 35.336 229.106 34.984 227.933 34.28C226.77 33.5653 225.863 32.5733 225.213 31.304C224.573 30.024 224.253 28.5467 224.253 26.872C224.253 25.0907 224.61 23.528 225.325 22.184C226.05 20.84 227.058 19.7893 228.349 19.032C229.65 18.2747 231.154 17.896 232.861 17.896C234.973 17.896 236.589 18.5093 237.709 19.736C238.839 20.9627 239.426 22.76 239.469 25.128L239.245 25.32H226.845V24.392L235.805 24.072C235.879 23.7947 235.917 23.3733 235.917 22.808C235.917 20.248 234.791 18.968 232.541 18.968C230.994 18.968 229.799 19.576 228.957 20.792C228.125 21.9973 227.709 23.7093 227.709 25.928C227.709 30.568 229.511 32.888 233.117 32.888C235.463 32.888 237.261 32.0347 238.509 30.328L239.101 30.696C238.546 32.168 237.645 33.3093 236.397 34.12C235.159 34.9307 233.698 35.336 232.013 35.336ZM252.111 35V34.296L254.447 33.832V23.56C254.447 22.2907 254.191 21.3467 253.679 20.728C253.167 20.0987 252.34 19.784 251.199 19.784C249.524 19.784 248.132 20.5467 247.023 22.072V20.744C247.919 19.848 248.9 19.1493 249.967 18.648C251.033 18.1467 252.095 17.896 253.151 17.896C256.191 17.896 257.711 19.3307 257.711 22.2V33.832L260.079 34.296V35H252.111ZM241.695 35V34.296L244.095 33.8V20.792L241.727 19.912V19.448L246.847 17.896H247.199V20.728L247.359 20.888V33.8L249.711 34.296V35H241.695Z" fill="white"/>
<path d="M5.13216 28.9851H41.3986C41.6685 28.9851 41.9271 28.8646 42.1176 28.6493C42.3082 28.4343 42.4154 28.1426 42.415 27.8386V26.2435C42.4069 20.7183 40.5231 15.4063 37.1503 11.4002C33.7778 7.39343 29.1729 4.99597 24.2815 4.70079V2.29262H26.1374C26.6985 2.29262 27.1538 1.77943 27.1538 1.14651C27.1538 0.513186 26.6985 0 26.1374 0H20.7362C20.1751 0 19.7202 0.513186 19.7202 1.14651C19.7202 1.77944 20.1751 2.29262 20.7362 2.29262H22.2487V4.70079C17.3577 4.99596 12.7529 7.39333 9.37998 11.4002C6.00717 15.407 4.12342 20.7185 4.11524 26.2435V27.8386C4.11489 28.1426 4.22208 28.4343 4.41264 28.6493C4.60319 28.8646 4.86179 28.9851 5.13163 28.9851H5.13216ZM6.14856 26.2435H6.14821C6.15196 21.1251 7.95679 16.2179 11.1665 12.6C14.376 8.98201 18.7278 6.94998 23.2652 6.94998C27.8028 6.94998 32.1548 8.98201 35.3639 12.6C38.5738 16.2175 40.3785 21.1249 40.3822 26.2435V26.6926L6.14804 26.6922L6.14856 26.2435Z" fill="#F82348"/>
<path d="M45.0836 31.2373H1.0164C0.455289 31.2373 0 31.7505 0 32.3838C0 33.0167 0.455289 33.5299 1.0164 33.5299H45.0836C45.6447 33.5299 46.1 33.0167 46.1 32.3838C46.1 31.7505 45.6447 31.2373 45.0836 31.2373Z" fill="#F82348"/>
<path d="M40.025 36.0728H5.90312C5.34167 36.0728 4.88672 36.5859 4.88672 37.2193C4.88672 37.8522 5.34167 38.3654 5.90312 38.3654H40.025C40.5861 38.3654 41.041 37.8522 41.041 37.2193C41.041 36.5859 40.5861 36.0728 40.025 36.0728Z" fill="#F82348"/>
</svg>
