<svg width="38" height="38" viewBox="0 0 38 38" fill="none" xmlns="http://www.w3.org/2000/svg">
<circle opacity="0.1" cx="19" cy="19" r="19" fill="#F82348"/>
<path d="M24.1764 22.3464C23.7329 21.9033 23.0995 21.7979 22.7827 22.1354L21.9169 23.0004C21.8959 23.0214 21.8959 23.0004 21.8747 23.0214C21.8536 23.0424 21.8324 23.0424 21.7903 23.0636C21.748 23.0636 21.7269 23.0847 21.7059 23.0636H21.6636C20.1855 22.6417 18.9607 21.9455 18.0106 20.9963C17.0604 20.047 16.3635 18.8234 15.9412 17.3467V17.3045V17.2201C15.9623 17.1991 15.9623 17.1569 15.9835 17.1358C16.0046 17.1148 15.9835 17.1148 16.0046 17.0936L16.8704 16.2286C17.187 15.9122 17.1027 15.2793 16.6592 14.8362L14.2097 12.4101C13.7662 11.967 13.1328 11.8617 12.816 12.1991L11 14.0134C13.196 21.1016 17.9049 25.806 24.9999 28L26.8158 26.1857C27.1325 25.8694 27.0271 25.2153 26.6046 24.7934L24.1764 22.3464Z" fill="#F82348"/>
</svg>
