<svg width="38" height="38" viewBox="0 0 38 38" fill="none" xmlns="http://www.w3.org/2000/svg">
<circle opacity="0.1" cx="19" cy="19" r="19" fill="#F82348"/>
<path d="M16.4983 9.00031C12.3688 9.00031 9 12.3693 9 16.4986C9 20.6279 12.369 23.997 16.4983 23.997C18.2042 23.997 19.7819 23.4241 21.0444 22.4581L26.2855 27.7073C26.676 28.0978 27.3167 28.0978 27.7072 27.7073C28.0976 27.3169 28.0976 26.684 27.7072 26.2936L22.458 21.0444C23.4236 19.782 23.9968 18.2039 23.9968 16.4983C23.9968 12.3688 20.6276 9 16.4985 9L16.4983 9.00031ZM16.4983 10.9999C19.5472 10.9999 21.9975 13.45 21.9975 16.499C21.9975 19.5481 19.5473 21.9982 16.4983 21.9982C13.4493 21.9982 10.9991 19.5481 10.9991 16.499C10.9991 13.45 13.4493 10.9999 16.4983 10.9999Z" fill="#F82348"/>
</svg>
