<svg width="38" height="38" viewBox="0 0 38 38" fill="none" xmlns="http://www.w3.org/2000/svg">
<circle opacity="0.1" cx="19" cy="19" r="19" fill="#F82348"/>
<path fill-rule="evenodd" clip-rule="evenodd" d="M18.9998 19.4856C21.3579 19.4856 23.1682 20.102 24.462 20.9701C26.182 22.1239 27 23.7358 27 24.9695C27 26.0679 26.1798 26.8143 24.8309 27.2885C23.3868 27.7965 21.3066 28 19 28C16.6934 28 14.6129 27.7964 13.1691 27.2885C11.8204 26.8143 11 26.0679 11 24.9695C11 23.7359 11.818 22.124 13.538 20.9701C14.8318 20.102 16.6419 19.4856 19.0002 19.4856H18.9998ZM18.9998 11C20.0517 11 21.0045 11.4452 21.6937 12.1641C22.3829 12.883 22.8096 13.8773 22.8096 14.9746C22.8096 16.072 22.3828 17.0659 21.6937 17.7849C21.0045 18.5038 20.0517 18.9489 18.9998 18.9489C17.9479 18.9489 16.9951 18.5038 16.3059 17.7849C15.6167 17.0659 15.19 16.072 15.19 14.9746C15.19 13.8773 15.6167 12.883 16.3059 12.1641C16.9951 11.4451 17.9479 11 18.9998 11Z" fill="#F82348"/>
</svg>
